<?xml version="1.0" encoding="UTF-8" standalone="no"?>
<!-- Created with Inkscape (http://www.inkscape.org/) -->

<svg
   width="210mm"
   height="297mm"
   viewBox="0 0 210 297"
   version="1.1"
   id="svg1"
   xml:space="preserve"
   inkscape:version="1.4.2 (ebf0e940d0, 2025-05-08)"
   sodipodi:docname="mortar_logo.svg"
   xmlns:inkscape="http://www.inkscape.org/namespaces/inkscape"
   xmlns:sodipodi="http://sodipodi.sourceforge.net/DTD/sodipodi-0.dtd"
   xmlns="http://www.w3.org/2000/svg"
   xmlns:svg="http://www.w3.org/2000/svg"><sodipodi:namedview
     id="namedview1"
     pagecolor="#ffffff"
     bordercolor="#000000"
     borderopacity="0.25"
     inkscape:showpageshadow="2"
     inkscape:pageopacity="0.0"
     inkscape:pagecheckerboard="0"
     inkscape:deskcolor="#d1d1d1"
     inkscape:document-units="mm"
     inkscape:zoom="5.6568543"
     inkscape:cx="472.17055"
     inkscape:cy="649.12402"
     inkscape:window-width="2532"
     inkscape:window-height="1358"
     inkscape:window-x="0"
     inkscape:window-y="0"
     inkscape:window-maximized="1"
     inkscape:current-layer="g1" /><defs
     id="defs1" /><g
     inkscape:label="图层 1"
     inkscape:groupmode="layer"
     id="layer1"><g
       id="g1"
       transform="translate(0,-0.33072917)"><path
         style="display:inline;fill:#e95204"
         d="m 114.81858,190.24518 c -2.20009,-0.71935 -3.9183,-1.59026 -5.64764,-2.86264 -1.83856,-1.35274 -1.75214,-1.61329 0.53508,-1.61329 3.6375,0 8.50229,-1.62857 11.6895,-3.91326 1.66086,-1.19055 4.44815,-3.90569 5.22465,-5.0894 0.64731,-0.98675 0.4317,-1.34081 -1.0965,-1.80065 -4.13525,-1.24431 -10.6181,-1.83622 -14.13038,-1.29017 -1.32511,0.20601 -2.45491,0.32894 -2.51068,0.27317 -0.711,-0.711 5.52126,-7.39952 8.5726,-9.2002 4.48399,-2.64612 8.93388,-2.65308 12.87047,-0.0201 2.49152,1.66643 4.13386,3.29206 5.57222,5.51554 1.30544,2.01801 1.4818,2.08576 3.81268,1.46464 1.83682,-0.48946 2.86539,-1.07627 4.46167,-2.54545 0.77752,-0.7156 2.29181,-2.0798 3.3651,-3.03155 1.07328,-0.95174 2.07886,-1.96855 2.2346,-2.25956 0.27183,-0.50791 0.23973,-0.52217 -0.80101,-0.35575 -0.59631,0.0953 -2.46663,0.62139 -4.15627,1.16898 -2.58098,0.83644 -5.4437,2.26781 -9.24316,3.1061 -0.41817,0.0923 -1.05238,-0.77036 -2.57256,-2.18999 -3.11351,-2.90757 -5.40753,-4.14904 -8.96621,-4.18727 -3.89895,-0.0419 -6.58386,1.22739 -10.41323,4.43317 -2.00089,1.67506 -3.75434,3.26134 -3.39628,2.68199 0.0692,-0.11197 0.19328,-2.83666 0.35433,-4.04691 0.45625,-3.42849 0.30716,-2.84122 -2.686,-5.11963 -3.05641,-2.32656 -6.94209,-1.7983 -10.615147,-2.65388 0,0 -9.210752,-0.90966 -19.953779,-1.22166 l -6.360816,-0.18473 c -9.652673,3.15299 -25.296043,-1.01375 -31.908981,4.11908 -1.139053,0.75652 -1.880036,1.43447 -1.9731,1.80527 -0.452686,1.80365 3.451935,9.61909 8.753595,17.52108 0.967769,1.44244 2.318701,3.59773 3.002069,4.78953 1.394111,2.43135 3.038792,6.46005 2.753362,6.74445 -0.102769,0.1024 -1.056097,-0.78537 -2.118507,-1.97282 -1.06241,-1.18745 -5.145559,-5.41655 -9.073665,-9.398 -12.671159,-12.84324 -14.88235,-15.32791 -15.213979,-17.09564 -0.08953,-0.47724 -0.07486,-1.0987 0.0326,-1.38102 0.107461,-0.28232 2.005309,-2.49849 4.217441,-4.92483 6.848658,-7.51181 7.685167,-8.4533 8.164308,-9.18898 l 0.464681,-0.71348 -2.352143,-3.43601 c -3.794206,-5.54258 -3.604029,-6.21662 2.020095,-7.15976 1.88595,-0.31627 3.714749,-0.68921 4.063999,-0.82877 0.79645,-0.31824 1.5875,-1.37432 1.5875,-2.11936 0,-0.3119 -0.700087,-2.14323 -1.55575,-4.06961 -0.855662,-1.92637 -1.55575,-3.76748 -1.55575,-4.09135 0,-0.32387 0.272374,-0.90551 0.605274,-1.29253 l 0.605274,-0.70367 4.050048,0.0749 4.050049,0.0749 0.805677,-0.67793 c 1.019852,-0.85815 1.023194,-1.31585 0.04067,-5.5702 -1.039069,-4.49918 -0.98788,-5.18744 0.44248,-5.94933 0.627341,-0.33416 1.642018,-0.14449 5.748445,1.07455 1.238003,0.36751 2.407775,0.6682 2.599493,0.6682 0.191718,0 0.704913,-0.31838 1.140434,-0.70752 l 0.791856,-0.70752 -0.257273,-4.03432 c -0.143704,-2.25343 -0.162192,-4.2844 -0.04188,-4.60085 0.245955,-0.64691 1.18688,-1.37979 1.771476,-1.37979 0.217243,0 1.934885,0.68451 3.816983,1.52114 1.882098,0.83662 3.663758,1.52242 3.959243,1.524 0.83429,0.004 1.842292,-0.93778 1.97876,-1.84964 0.06704,-0.44797 0.308593,-2.243246 0.536779,-3.989495 0.442643,-3.387429 0.77222,-4.216463 1.776428,-4.468503 1.043449,-0.261889 1.644931,0.03426 4.671332,2.299989 4.373875,3.274525 4.955763,3.108249 6.713553,-1.918419 0.615062,-1.758863 1.277197,-3.529471 1.471411,-3.934686 0.450611,-0.940169 1.488986,-1.46133 2.298426,-1.153581 0.3299,0.125427 1.789253,1.612508 3.243007,3.304625 2.469279,2.874149 2.703387,3.076575 3.558106,3.076575 1.324432,0 1.857804,-0.495546 3.212307,-2.984492 0.665229,-1.22238 1.592399,-2.822583 2.060379,-3.556008 0.76225,-1.194609 0.94392,-1.3335 1.7442,-1.3335 1.10274,0 1.63865,0.542316 3.06933,3.106038 2.55321,4.575258 3.18378,5.227005 4.6789,4.836023 0.26323,-0.06884 1.49467,-1.341036 2.73653,-2.827109 3.01421,-3.606953 3.11425,-3.689521 4.21907,-3.482255 0.51635,0.09687 1.05507,0.407986 1.26174,0.728673 0.34674,0.538025 2.02578,4.84528 2.67832,6.87071 0.23419,0.726893 0.53167,1.067698 1.16179,1.330977 0.46584,0.194642 1.0534,0.280453 1.30569,0.190691 0.63015,-0.22421 2.65337,-1.652903 4.74853,-3.353171 1.46803,-1.191339 1.91211,-1.420032 2.75746,-1.420032 1.69158,0 2.01,0.619281 2.71808,5.286202 0.54544,3.595018 0.67216,4.054788 1.24082,4.502098 1.18906,0.93532 1.5758,0.86756 5.08498,-0.89089 3.73512,-1.871675 4.67611,-2.045876 5.6206,-1.04052 0.58656,0.62437 0.58992,0.66405 0.41701,4.92369 l -0.17433,4.29424 0.66585,0.79132 c 0.85491,1.01599 1.27673,1.00806 5.19269,-0.0977 1.7316,-0.48895 3.34901,-0.889 3.59423,-0.889 1.23796,0 2.25173,1.06647 2.24476,2.36146 -0.002,0.30775 -0.34456,2.03844 -0.762,3.84597 -0.9596,4.15508 -0.56932,4.28106 0.0169,5.52953 l 0.731,1.5568 c -2.78766,2.32721 4.42861,-3.97132 8.34181,-1.32848 1.16691,0.7881 1.69393,1.8099 0.59894,4.23202 -0.55481,1.22725 -1.66387,3.73896 -2.41867,5.13307 -2.14029,3.95315 2.32541,2.75579 3.92014,3.45778 0.89141,0.39239 1.82617,0.28572 2.90531,0.31066 1.20973,0.028 2.92365,0.85768 3.1626,2.10044 0.5888,3.0623 -3.93008,6.52873 -5.31798,7.69664 -0.28698,0.24148 -0.0669,0.82388 0.61422,1.54023 0.62876,0.66127 2.2018,2.30112 10.55704,8.32674 3.30089,2.38054 3.59311,2.82399 3.09302,4.69379 -0.52568,1.96543 -5.64803,9.981 -13.11355,20.52035 -1.97912,2.794 -4.33333,6.24836 -5.23158,7.67635 -0.89825,1.428 -1.73464,2.59957 -1.85865,2.6035 -0.38787,0.0123 0.0816,-2.78916 0.84782,-5.05965 0.4032,-1.19471 1.3803,-3.5438 2.17132,-5.2202 2.84505,-6.02942 5.74667,-14.45682 6.1218,-17.78 0.18026,-1.59686 -0.10702,-1.99741 -1.93047,-2.6916 -3.31162,-1.26076 -4.36342,-1.4994 -6.60849,-1.4994 -2.25086,0 -3.04317,0.28573 -3.04371,1.09764 -3.6e-4,0.53209 -1.42937,3.33579 -1.89787,3.7236 -0.24999,0.20692 -0.97371,1.17847 -1.60828,2.159 -1.6435,2.53952 -6.7517,7.53924 -9.70165,9.49563 -1.32715,0.88015 -3.72745,2.2422 -5.334,3.02677 -2.82064,1.37748 -3.03445,1.54146 -6.223,4.77264 -3.71383,3.76348 -6.32621,5.63478 -10.26488,7.35295 -3.22346,1.40617 -4.32351,1.64792 -7.43709,1.6344 -2.01803,-0.009 -3.02551,-0.14459 -4.39603,-0.5927 z"
         id="path6"
         inkscape:label="skin"
         sodipodi:nodetypes="csssssssssssssscsssssssssscssssssssssscssssssscccsssssscsssscssssssssssssssssssssssssssscssscsscsssasasssssssssssssssssssccc" /><path
         id="path20"
         style="display:inline;fill:#70532f;fill-opacity:1;stroke-width:0.282543"
         d="M 58.641382 145.38337 C 57.908969 145.38337 56.115693 146.95765 56.373303 147.37447 C 56.626491 147.78418 57.822288 147.72915 58.415556 147.28042 C 58.686732 147.07532 59.108512 146.90731 59.352966 146.90731 C 59.597421 146.90731 59.872519 146.78554 59.964299 146.63704 C 60.215999 146.22978 59.322748 145.38337 58.641382 145.38337 z M 76.464583 157.63844 A 26.987501 4.090868 0 0 0 49.477083 161.72915 A 26.987501 4.090868 0 0 0 76.464583 165.82037 A 26.987501 4.090868 0 0 0 103.45208 161.72915 A 26.987501 4.090868 0 0 0 76.464583 157.63844 z M 108.27608 163.62774 C 104.13166 165.56876 110.09159 162.77745 108.27608 163.62774 z M 109.16956 164.28455 C 109.00999 164.28301 108.79775 164.36235 108.53963 164.52691 C 107.77324 165.01548 103.18464 166.28254 101.5876 166.54901 C 100.43223 166.74179 100.31837 168.86731 99.456462 171.79933 C 98.47126 175.15077 96.819264 177.92939 93.918298 181.11349 C 90.999415 184.31725 91.148334 184.19295 87.633927 186.35865 C 84.951258 188.0118 84.308715 188.31191 81.036397 189.4396 C 79.918797 189.82475 78.387001 190.36387 77.632471 190.63746 C 76.125708 191.18383 73.078085 191.67185 71.777531 191.78106 C 70.18698 191.91462 69.456661 192.08239 67.066191 191.48805 C 65.982908 191.21872 63.249533 190.43177 66.907027 191.74178 C 68.495627 192.31077 70.528603 192.53573 71.282987 192.74534 C 72.037372 192.95497 73.169429 193.07436 73.798079 193.01096 C 74.426729 192.94755 76.369395 192.82847 78.115645 192.74637 C 87.268095 192.31587 91.655386 190.85171 92.942647 187.79784 C 93.40882 186.69191 94.445703 185.71974 97.027669 183.96655 C 103.06437 179.86755 107.80666 172.691 109.4636 165.14754 C 109.58706 164.58551 109.4742 164.28748 109.16956 164.28455 z " /><path
         id="path8"
         style="display:inline;fill:#dad0c8"
         d="m 165.74079,121.2572 c -0.81014,-0.003 -1.4218,0.18268 -2.08153,0.63097 -1.1773,0.79995 -1.72729,0.83138 -1.53272,0.0873 0.12941,-0.49486 0.0675,-0.53232 -0.63821,-0.39119 -0.72899,0.1458 -3.36258,1.60325 -3.36258,1.86087 0,0.0639 0.42853,0.0829 0.9524,0.0419 0.68467,-0.0535 0.93283,0.02 0.88263,0.262 -0.0451,0.2171 0.0901,0.28687 0.38085,0.19637 0.24798,-0.0772 0.62244,-0.0325 0.83199,0.0997 0.31406,0.1982 0.32528,0.33064 0.0636,0.75293 -0.17462,0.28176 -0.31781,0.68209 -0.31781,0.88935 0,0.20727 -0.34261,0.63013 -0.76171,0.93999 -0.97073,0.71769 -0.97094,1.06433 -5.2e-4,0.92191 0.695,-0.10201 0.72811,-0.0752 0.38085,0.30851 -0.49978,0.55224 -0.48061,0.67628 0.12868,0.83561 0.33962,0.0888 0.45753,0.26758 0.35398,0.53743 -0.19105,0.49788 -0.13536,0.49906 1.01079,0.0202 0.48625,-0.20317 0.89248,-0.34295 0.92966,-0.32092 2.6e-4,2.1e-4 0.001,8.2e-4 0.002,0.001 v 5.2e-4 h 5.2e-4 v 5.1e-4 5.2e-4 l 5.2e-4,5.2e-4 c 0.007,0.0368 0.0602,0.60793 0.11885,1.26865 0.0966,1.08639 0.0285,1.27667 -0.71055,1.99006 l -0.81752,0.78858 0.9524,-0.0977 c 0.74694,-0.0766 0.95291,-0.009 0.95291,0.3116 0,0.57733 1.36786,1.51998 2.21227,1.52498 0.38983,0.002 0.87979,0.11469 1.08934,0.25011 0.53906,0.34837 0.92561,0.31348 1.8526,-0.16588 0.74014,-0.38275 0.76687,-0.43634 0.30489,-0.61237 -0.27852,-0.10611 -1.17525,-0.28849 -1.99316,-0.40566 l -1.48725,-0.21342 -0.0966,-1.25419 c -0.0625,-0.81361 0.0246,-1.39388 0.24753,-1.65106 0.18907,-0.2181 0.65782,-1.19277 1.04179,-2.16576 0.38396,-0.973 0.8498,-2.00135 1.03508,-2.28565 0.18528,-0.28431 0.44888,-1.01937 0.58601,-1.63297 0.20772,-0.92943 0.33102,-1.5569 -0.17673,-2.23449 -0.82076,-1.09484 -0.94405,-1.08589 -2.33474,-1.09089 z m 6.21202,13.38729 c -0.76893,0.0182 -1.58652,0.29308 -2.93625,0.89814 -1.68113,0.75362 -2.24446,1.35429 -1.017,1.08469 0.96201,-0.21129 1.05441,0.19135 0.24185,1.05627 -0.46896,0.49917 -0.48824,0.58756 -0.12712,0.58756 0.66906,0 0.49671,0.64565 -0.27337,1.02422 l -0.69815,0.34314 0.63459,0.10283 c 0.34925,0.0565 0.72647,0.26329 0.83819,0.4594 0.11172,0.19611 0.56888,0.35926 1.01596,0.36226 0.80732,0.006 0.80955,0.009 0.27853,0.44441 -0.29407,0.24137 -0.60608,0.64172 -0.69298,0.88936 -0.14778,0.42096 -0.19146,0.41676 -0.67179,-0.0636 -0.28257,-0.28257 -0.51367,-0.63657 -0.51367,-0.78651 0,-0.14997 -0.19893,-0.23439 -0.44183,-0.18759 -0.53495,0.10302 -0.64073,1.90414 -0.12351,2.10272 0.20483,0.0786 0.26634,0.35318 0.16744,0.74724 -0.13945,0.55561 -0.0646,0.63367 0.69246,0.72657 0.46671,0.0573 1.02576,0.12281 1.2423,0.14521 0.41536,0.0429 1.00304,-0.41879 1.00304,-0.78755 0,-0.12 -0.11403,-0.14728 -0.25373,-0.061 -0.1397,0.0863 -0.25425,0.0339 -0.25425,-0.11627 0,-0.1502 0.39989,-0.46396 0.88884,-0.69712 0.85413,-0.40731 1.17609,-0.83767 0.62631,-0.83767 -0.44672,0 0.16528,-0.87792 0.87799,-1.25935 0.36007,-0.1927 0.65474,-0.48513 0.65474,-0.64958 0,-0.16446 0.51443,-0.76681 1.14308,-1.33893 2.68785,-2.44617 -0.13407,-3.74325 -0.86558,-3.96049 -0.53094,-0.15766 -0.97473,-0.23932 -1.43609,-0.22841 z m -25.25117,1.42576 c -0.18971,0.008 -0.42784,0.13111 -0.76843,0.38292 -0.40761,0.30135 -0.92695,0.54829 -1.15445,0.54829 -0.2275,0 -1.32396,0.39988 -2.43603,0.88883 -1.11208,0.48895 -2.39872,0.88884 -2.85925,0.88884 -0.51476,0 -1.01445,0.19569 -1.29708,0.50798 -0.25285,0.2794 -0.7209,0.50797 -1.04025,0.50797 -0.31936,0 -0.65779,0.12475 -0.75189,0.27699 -0.10619,0.17188 -0.51911,0.21136 -1.08934,0.10439 -0.79048,-0.1483 -1.27961,0.0137 -3.50521,1.16168 -2.56419,1.3226 -3.13831,1.87899 -3.13831,3.04116 0,0.27283 0.20046,0.71513 0.44493,0.98289 0.55275,0.60539 0.9776,0.62451 3.36517,0.15193 3.01878,-0.59751 5.37835,-1.27898 6.47351,-1.87017 0.55673,-0.30053 1.17948,-0.54674 1.38389,-0.54674 0.58401,0 4.61004,-1.27391 5.2002,-1.64538 0.2923,-0.184 1.18844,-0.52065 1.99109,-0.74827 2.56435,-0.72722 3.98494,-2.53163 2.9745,-3.77807 -0.37432,-0.46175 -0.6892,-0.55231 -1.80868,-0.51831 -0.74549,0.0226 -1.50314,-0.0806 -1.68361,-0.22996 -0.0905,-0.0749 -0.18693,-0.11183 -0.30076,-0.10697 z m 7.56853,6.14639 c -1.31971,0.0232 -2.00773,0.21724 -3.86333,1.08934 -1.2699,0.59684 -2.63647,1.06144 -3.12384,1.06144 -0.47655,0 -1.18023,0.16162 -1.56321,0.35966 -0.38297,0.19805 -1.4345,0.49643 -2.33681,0.6625 -1.44837,0.26658 -4.86297,1.40588 -7.30498,2.43757 -0.59488,0.25136 -0.97726,0.27986 -1.31672,0.0982 -0.70633,-0.37802 -1.52263,-0.30501 -2.7342,0.24494 -0.74417,0.33779 -1.07952,0.64739 -1.07952,0.99581 0,0.27799 -0.11403,0.57567 -0.25373,0.66197 -0.1397,0.0863 -0.25531,0.52212 -0.25631,0.9679 -0.002,0.60565 0.20671,0.98487 0.82527,1.50172 0.989,0.82636 1.25659,0.84543 2.69492,0.19275 0.75143,-0.341 1.40139,-0.4564 2.03192,-0.3607 0.89793,0.13623 1.45112,-0.0195 6.00687,-1.69188 0.6985,-0.25641 1.54466,-0.46939 1.87999,-0.47439 0.33532,-0.005 1.19236,-0.27648 1.90479,-0.6041 2.66262,-1.22446 4.37955,-1.89369 5.58674,-2.17765 0.68377,-0.16084 1.54208,-0.50536 1.9079,-0.76584 0.36581,-0.26048 0.94965,-0.51376 1.29707,-0.56276 0.39979,-0.0564 0.63149,-0.25304 0.63149,-0.53588 0,-0.24578 0.33775,-0.71642 0.75034,-1.04593 0.73799,-0.58939 0.74127,-0.60195 0.19069,-0.7767 -0.59674,-0.1894 -0.72452,-0.51956 -0.30179,-0.78083 0.54975,-0.33976 -0.0337,-0.52423 -1.57355,-0.49713 z m -1.88154,8.1194 -2.14819,0.0248 c -1.54229,0.0175 -2.506,0.17166 -3.41788,0.54673 -1.91715,0.78856 -6.49142,2.22613 -9.8795,3.10524 -3.35487,0.87049 -3.4556,0.91096 -3.4556,1.38906 0,0.18524 -0.27682,0.51864 -0.61547,0.74053 -0.76251,0.49962 -0.9602,1.08318 -0.69763,2.06034 0.13126,0.48847 0.421,0.81518 0.82166,0.92707 0.34032,0.095 0.64853,0.18402 0.68523,0.19792 0.11444,0.0434 3.45209,-0.92388 4.20439,-1.21853 0.39327,-0.15403 1.1036,-0.28008 1.57872,-0.28008 0.47512,0 1.23932,-0.16519 1.69808,-0.36742 0.45877,-0.20223 1.36212,-0.43583 2.00763,-0.51883 0.64552,-0.083 1.61268,-0.37448 2.14923,-0.64803 0.53655,-0.27355 1.10512,-0.49764 1.26348,-0.49764 0.15836,0 0.49044,-0.22319 0.73743,-0.4961 0.24823,-0.2743 1.08902,-0.62691 1.8805,-0.78858 2.30231,-0.47028 2.78212,-0.72125 3.05718,-1.59887 0.13774,-0.43959 0.22369,-1.19932 0.19069,-1.68827 z m -63.404914,8.96535 c -0.334374,0.005 -0.676781,-0.002 -1.103292,0.35656 -0.650697,0.54753 -1.038468,0.6475 -2.643766,0.6842 -1.034654,0.0237 -2.25227,-0.0413 -2.706295,-0.1447 -0.630684,-0.14367 -3.720159,-0.19003 -4.194393,0.33399 -0.254512,0.28123 -1.21225,0.17725 -1.612305,0.17725 -0.849764,0 -0.434353,1.07251 0.08578,2.31665 0.226153,0.54094 0.54182,2.03437 0.661459,2.34869 0.191529,0.5032 0.396079,0.57154 1.711006,0.57154 1.70803,0 8.323643,-0.64262 9.599748,-0.86056 l 0.853695,-0.14572 1.444356,-0.14521 -5.17e-4,5.1e-4 3.078882,-0.14159 c 1.69351,-0.078 4.261026,-0.31505 4.351156,-0.40515 0.235738,-0.23573 -0.72266,-1.98427 -1.769918,-2.18074 -0.49769,-0.0934 -1.773776,-0.39075 -1.866036,-0.54002 -0.281656,-0.45573 -1.874036,-0.98769 -2.757455,-0.99529 -0.556071,-0.55463 -1.961928,-0.97969 -2.783809,-1.18597 -0.12226,-0.0307 -0.236841,-0.046 -0.348299,-0.0444 z"
         sodipodi:nodetypes="cssssccscssssssssccccccccccsscssscccssssccccsssscccscccsscssscssssssssscccsssssscsssssssssscscsssssssssscsscssssssssssssccsssssscssssssssscccsccsssssccccccsscscc" /><path
         id="path5"
         style="display:inline;fill:#a06b33"
         d="m 49.976794,131.7594 c -1.587974,0.0168 -3.46246,0.99557 -5.005379,2.22519 -1.018981,0.81207 -3.035511,3.23861 -2.476334,4.48758 0.583979,1.30435 1.509913,1.64595 0.982369,1.75286 -0.345484,0.07 1.215074,0.86494 1.693436,1.47175 0.503203,0.63832 0.752753,-0.45174 1.125513,-0.79117 0.228603,-0.20817 1.352788,-1.4432 2.032951,-2.07791 1.352507,-1.26213 4.302627,-2.25774 5.254976,-2.25774 0.836305,0 -0.193455,-1.40858 -0.713135,-2.76934 -0.597506,-1.48536 -1.659305,-2.05427 -2.894397,-2.04122 z m 16.148886,19.75435 c -0.180462,0 -0.873107,0.63762 -1.538924,1.41697 -0.959031,1.12256 -1.914135,1.94106 -3.011187,2.51923 -10.971109,1.03629 -18.4042,3.7721 -18.405077,6.24457 -6.243123,5.69065 14.982891,6.31437 33.465657,6.31435 18.482768,2e-5 33.465971,-2.82704 33.465661,-6.31435 -0.001,-3.48711 -14.98399,-6.31384 -33.465661,-6.31382 -2.453687,-1e-5 -4.432034,-0.14884 -6.735507,-0.0543 -1.681584,-1.76476 -3.573322,-3.81268 -3.774962,-3.81268 z m 9.54722,6.00583 c 14.841238,4e-5 27.99427,1.85355 27.99261,4.1398 -1.7e-4,2.28605 -13.152665,4.13925 -27.99261,4.13929 -14.840148,1e-5 -26.870542,-1.85321 -26.870711,-4.13929 -9.49e-4,-1.27665 1.86468,-2.0213 7.761801,-2.78071 0.176344,0.47007 0.443384,1.05193 0.760677,1.63349 0.190545,0.34925 0.619426,2.26637 0.993221,3.00706 1.082052,2.1441 3.483525,1.6208 10.500133,1.94044 3.25593,0.14833 5.974692,0.3244 6.041492,0.3912 0.245164,0.24516 2.559016,0.16247 2.559016,-0.10336 0,-0.26168 -1.289751,-2.63449 -3.016869,-5.21466 -0.358593,-0.53571 -1.239974,-1.67567 -2.427242,-2.9776 1.392894,-0.0343 2.242813,-0.0357 3.698482,-0.0357 z m -33.968986,5.52215 c -0.08114,0.003 -0.133282,0.0149 -0.149345,0.031 -0.147041,0.14704 2.041471,2.56136 2.505274,3.84576 1.996168,5.52793 4.242702,9.44098 7.344254,12.79095 1.729321,1.86782 5.891695,5.41394 7.79539,6.64146 0.705065,0.45463 1.382317,1.21009 1.889291,2.1084 0.945026,1.6745 1.811291,2.12229 5.850805,3.02255 1.73901,0.38759 3.109128,0.54974 3.937228,0.46664 2.483215,-0.24909 5.362163,-0.80624 6.734989,-1.3038 0.766069,-0.27766 2.306997,-0.81994 3.424597,-1.20509 3.272318,-1.12769 3.914861,-1.4278 6.59753,-3.08095 3.514407,-2.1657 3.365488,-2.0414 6.284371,-5.24516 2.900966,-3.1841 4.552962,-5.96272 5.538164,-9.31416 0.861908,-2.93202 1.370788,-3.78904 2.214848,-3.73104 0.47533,0.0327 1.35599,-1.11527 1.35599,-1.37356 0,-0.53514 -2.19622,-0.0574 -4.695318,0.4005 -1.1176,0.20479 -5.195767,0.56844 -9.177217,0.86558 -6.149395,0.45891 -8.373434,0.30641 -15.170134,0.17208 -4.40055,-0.0869 -9.079194,0.0629 -10.196793,-0.0667 -1.1176,-0.12957 -3.689247,-0.41199 -5.714897,-0.62787 -2.02565,-0.21587 -4.140138,-0.50933 -4.698938,-0.57103 -2.172612,-0.23985 -4.800714,-0.89683 -7.131348,-1.89652 -0.922158,-0.39554 -2.398459,-1.25446 -3.452502,-1.68672 -0.418365,-0.17155 -0.773902,-0.23339 -0.995805,-0.24185 -0.03328,-0.001 -0.06339,-0.001 -0.09043,-5.1e-4 z"
         sodipodi:nodetypes="sssssssscssccccscscssccssssssccsssssscssssssssscsscssccccscs" /><path
         style="fill:#a03407"
         d="m 157.87158,179.73499 c 0,-0.94867 1.37459,-4.31137 3.77777,-9.24167 2.00388,-4.11112 3.30976,-7.40907 3.93336,-9.93357 0.21631,-0.87566 -0.36164,-0.94377 -1.48813,-0.17539 -0.77772,0.5305 -4.27507,2.21827 -4.50278,2.21827 -0.0691,0 0.33285,-0.42617 0.67178,-0.9256 0.33892,-0.49944 0.8759,-1.48508 1.17185,-2.27608 0.13756,-0.36765 0.15804,-0.87469 0.30098,-1.1599 0.16461,-0.32842 0.44776,-0.41225 0.53564,-0.46814 0.16419,-0.10443 1.32723,-0.20622 2.58453,-0.20475 1.80198,0.002 2.66245,0.12984 4.064,0.63588 0.24961,0.0901 0.5124,0.16258 0.75731,0.2479 0.71459,0.24893 1.34286,0.50194 1.56637,0.55852 0.52357,0.13253 0.49719,0.22207 -0.65086,2.20897 -1.40202,2.42644 -5.32229,8.32261 -7.36823,11.08197 -0.78745,1.06204 -2.16091,3.1266 -3.05212,4.58792 -0.89121,1.46131 -1.77363,2.8243 -1.96093,3.02886 -0.29429,0.32142 -0.34054,0.29654 -0.34054,-0.18319 z m -21.50494,-12.83211 c 3.63227,-1.39471 5.86705,-1.38099 8.44803,-2.21743 1.68964,-0.54759 3.55996,-1.08603 4.15627,-1.18138 1.01061,-0.1616 1.08283,-0.12622 0.83705,0.32267 -0.30629,0.55938 -2.02171,2.37987 -4.24261,4.25589 -1.31025,1.10677 -1.48594,0.98543 -2.33561,1.02954 -2.40009,0.12461 -10.99805,0.0457 -6.86313,-2.20929 z m -94.984743,-3.93013 c -0.659647,-0.94297 -1.477065,-2.09348 -1.816484,-2.55668 -0.339418,-0.4632 -0.668313,-0.89269 -0.619957,-0.92512 0.807786,-0.54179 1.312344,-1.23146 2.086134,-1.67463 1.522784,-0.87213 3.256552,-1.37091 4.919927,-1.87343 2.185947,-0.74482 3.403077,-1.3307 5.248246,0.10336 0.735055,0.57129 1.022796,0.6585 0.709414,0.95597 -0.200767,0.19056 -1.810756,0.62939 -3.072473,0.91452 -3.091613,0.69867 -5.083815,1.31734 -6.014894,2.1871 -0.959813,0.8966 -0.996176,1.77145 -0.13616,3.27584 0.740344,1.29505 0.74287,1.30757 0.263774,1.30757 -0.202492,0 -0.907879,-0.77152 -1.567527,-1.7145 z m -2.128306,-6.9951 C 0,0 0,0 39.253591,155.97765 Z"
         id="path2"
         sodipodi:nodetypes="ssssssssscsssssssssssssassssassssssssss" /><path
         style="fill:#130905"
         d="m 105.97893,174.06717 c 0,-0.15166 0.85729,-1.66247 1.26197,-2.46414 0.65089,-1.2894 1.7891,-4.51621 2.22061,-6.45571 0.19047,-0.85612 -0.17098,-1.09922 -0.92225,-0.62027 -0.76639,0.48857 -5.325,1.85744 -6.92867,2.08055 -0.6985,0.0972 -2.012954,0.33344 -2.921004,0.52503 -0.90805,0.19159 -4.7371,0.58627 -8.509,0.87707 -12.435844,0.95874 -29.017825,0.38973 -38.280835,-1.31362 -1.720853,-0.31644 -3.727925,-0.91708 -5.460999,-1.63426 -1.507089,-0.62366 -2.919017,-1.13452 -3.137618,-1.13525 -0.439485,-0.001 -1.253544,-1.5033 -1.253544,-2.31264 0,-1.70816 1.809346,-2.66497 7.366,-3.89527 2.973232,-0.65831 3.110093,-1.02609 0.690698,-1.8561 l -1.722301,-0.59086 -2.341699,0.81526 c -1.786313,0.62189 -2.883873,0.83755 -4.627698,0.90929 -2.494912,0.10263 -3.335148,-0.15111 -3.837593,-1.15891 -0.708075,-1.42026 0.419498,-3.39945 3.858829,-6.77327 2.102024,-2.06199 2.374777,-2.43862 2.759144,-3.81 0.82269,-2.93527 0.849979,-2.76623 -0.689195,-4.26895 -0.766642,-0.74848 -1.52221,-1.60063 -1.67904,-1.89367 -0.67782,-1.26652 -0.125831,-2.629 2.008962,-4.95875 1.807935,-1.97304 3.86958,-3.01753 6.275987,-3.17958 1.492881,-0.10053 1.626059,-0.0629 2.289235,0.64704 0.387278,0.41459 0.970617,1.50861 1.296309,2.43118 0.325693,0.92256 0.724287,1.78106 0.885765,1.90778 0.161478,0.12671 1.036546,0.30076 1.944596,0.38677 1.297742,0.12293 2.25847,0.45649 4.49009,1.55891 2.785395,1.37599 3.891909,2.28587 3.891909,3.2003 0,0.66437 -0.939002,1.22244 -2.37804,1.41334 -2.313189,0.30685 -2.896634,1.84959 -1.328364,3.51244 0.957509,1.01525 1.394528,1.02847 3.251786,0.0983 1.993585,-0.99842 2.423557,-0.47355 2.121688,2.58994 -0.202546,2.05553 -0.277575,1.91657 2.438475,4.51624 l 1.946544,1.86314 6.752955,0.12061 c 7.696603,0.2445 12.523724,-0.20323 18.627458,0.98218 0.523875,0.0842 1.79038,0.32783 2.814456,0.54139 1.024074,0.21356 1.932314,0.31793 2.018314,0.23194 0.086,-0.086 -0.38041,-0.64917 -1.03646,-1.25148 -1.190135,-1.09267 -1.527244,-2.00923 -0.836478,-2.27431 0.206978,-0.0794 0.742668,0.28082 1.278058,0.85947 1.23062,1.33007 2.28337,1.83549 3.82315,1.83549 1.47158,0 2.92571,-0.65016 4.06745,-1.81863 0.86566,-0.8859 1.651,-1.03822 1.651,-0.32019 0,0.85255 -1.01805,1.79415 -2.93857,2.71788 -1.03808,0.4993 -1.88742,0.96074 -1.88742,1.02541 0,0.0647 1.06457,0.6117 2.36571,1.2156 1.41315,0.65589 2.60012,1.39403 2.94787,1.83318 0.52526,0.66333 0.56649,0.90895 0.42183,2.51318 -0.0882,0.9779 -0.31438,2.43744 -0.50267,3.24341 -0.19247,0.8239 -0.24364,1.52641 -0.11689,1.60475 0.12399,0.0766 1.05247,-0.61891 2.06329,-1.54564 3.52856,-3.23505 6.35248,-4.74451 9.79496,-5.2357 2.41414,-0.34446 4.57195,0.0793 7.35902,1.44519 2.06554,1.01229 2.6944,1.49396 5.00861,3.83638 2.7107,2.74375 2.50112,4.61763 2.69673,5.18991 0.1057,0.30924 -0.54008,-0.25317 -0.95598,-0.81976 -3.39555,-4.62584 -6.91427,-7.17946 -10.73889,-7.79336 -4.42435,-0.71017 -9.62448,1.83397 -14.19737,6.946 -1.40418,1.56973 -5.46088,4.33684 -5.46088,3.90574 z m -17.332521,-6.72008 c 11.463761,-1.01637 15.485461,-1.77839 19.629881,-3.71941 1.81551,-0.85029 2.24899,-1.62127 1.4289,-2.54141 -1.15885,-1.30023 -7.40747,-3.28812 -11.396604,-3.62563 -1.1176,-0.0946 -3.11785,-0.33031 -4.445,-0.52391 -3.076599,-0.44878 -11.476327,-0.88548 -17.031921,-0.88548 -4.120946,0 -4.304077,0.0214 -4.304077,0.50316 0,0.64662 0.897108,0.87952 2.623676,0.68114 1.792008,-0.20591 13.148594,0.24357 17.823322,0.70543 9.103104,0.89936 13.206104,2.65011 11.008624,4.69737 -1.54964,1.44371 -9.692333,2.85045 -19.136623,3.30606 -2.794,0.13479 -5.785909,0.17771 -6.648686,0.0954 -1.419173,-0.13542 -1.541995,-0.19242 -1.288644,-0.5981 0.227179,-0.36377 0.07711,-0.78429 -0.794983,-2.22765 -0.591264,-0.97858 -1.455825,-2.31483 -1.921247,-2.96946 -1.340474,-1.8854 -7.755975,-8.51281 -8.22546,-8.49715 -0.233738,0.008 -0.926064,0.64867 -1.538502,1.42417 -0.612438,0.7755 -1.628519,1.73659 -2.257956,2.13577 -1.171661,0.74305 -4.634567,2.01388 -5.487636,2.01388 -0.716301,0 -0.395973,1.13202 1.215666,4.29609 l 1.369614,2.68891 1.485918,0.16809 c 0.817255,0.0924 2.000268,0.23713 2.628918,0.3215 0.628649,0.0844 3.564746,0.25625 6.524658,0.38193 5.565475,0.23631 7.38396,0.56711 5.045402,0.9178 -2.623687,0.39344 -17.860688,-0.88124 -21.60306,-1.80726 -2.628703,-0.65044 -4.685618,-1.61831 -4.852524,-2.28331 -0.08156,-0.32498 -0.07206,-0.71423 0.02112,-0.865 0.32333,-0.52316 3.21515,-1.80906 4.781086,-2.126 1.28423,-0.25993 1.574322,-0.41014 1.574322,-0.8152 0,-0.42811 -0.164811,-0.49101 -1.195763,-0.45635 -2.10875,0.0709 -6.001512,1.11136 -8.114074,2.16873 -3.159535,1.5814 -3.255078,2.61908 -0.366795,3.98373 1.792333,0.84684 4.843077,1.69162 7.009632,1.94105 0.76835,0.0884 2.492632,0.378 3.831738,0.64344 2.264756,0.44892 6.418818,0.89778 10.011261,1.08175 5.089082,0.26061 18.695823,0.13171 22.595821,-0.21406 z m 1.263406,-2.54532 c 4.321475,-0.33791 7.976505,-0.73365 8.12229,-0.87944 0.446621,-0.44662 -0.176614,-1.10698 -1.451429,-1.53788 -0.647283,-0.21879 -1.380551,-0.57534 -1.629484,-0.79233 -0.574156,-0.5005 -1.678894,-0.78355 -3.049247,-0.78128 -0.813223,10e-4 -1.107949,-0.10947 -1.218635,-0.45821 -0.175205,-0.55203 -1.62901,-1.08215 -2.305457,-0.84068 -0.265797,0.0949 -0.695281,0.35517 -0.954409,0.57841 -0.409016,0.35237 -1.457214,0.52385 -3.338857,0.54622 -0.2794,0.003 -1.473154,-0.11171 -2.652786,-0.25562 -1.995307,-0.24342 -2.182511,-0.22622 -2.68607,0.24685 -0.408424,0.3837 -0.738264,0.46912 -1.343802,0.34801 -1.131709,-0.22634 -1.264722,0.35251 -0.454578,1.97825 0.36313,0.72871 0.660236,1.46577 0.660236,1.63791 0,0.17214 0.155668,0.46865 0.345928,0.65891 0.418919,0.41892 1.25798,0.3874 11.9563,-0.44912 z m -32.499402,-1.12376 c 0.224757,-0.36367 -1.544421,-4.04741 -2.034075,-4.2353 -0.499564,-0.19171 -2.997996,0.47028 -4.578077,1.21301 -2.158733,1.01472 -1.163822,1.94844 2.933328,2.75292 2.835754,0.5568 3.472372,0.60341 3.678824,0.26937 z m 44.898677,-1.10058 c 1.11127,-0.61103 1.22307,-1.24136 0.29514,-1.66415 -1.29054,-0.58801 -4.552771,-1.33687 -7.448747,-1.7099 -1.618593,-0.20849 -3.114347,-0.4289 -3.323897,-0.4898 -0.20955,-0.0609 -0.547905,-0.006 -0.7519,0.12196 -0.586784,0.36814 0.417171,1.35504 1.182936,1.16285 0.762382,-0.19135 2.8439,0.33269 3.581392,0.90164 0.320885,0.24755 0.903657,0.52043 1.295049,0.6064 0.391391,0.086 1.095043,0.55189 1.563671,1.03539 0.75179,0.77565 0.958059,0.86028 1.752946,0.71921 0.4955,-0.0879 1.32953,-0.39555 1.85341,-0.6836 z m -24.078199,-2.96295 c 0.770254,-0.47604 0.987138,-0.48614 4.392237,-0.20446 3.73583,0.30903 4.890459,0.15238 4.890459,-0.66352 0,-0.42101 -1.542991,-0.56196 -8.799105,-0.8038 -5.255717,-0.17518 -5.589649,-0.0666 -4.071856,1.32439 1.098306,1.00652 2.328983,1.12567 3.588265,0.34739 z m -33.773338,-4.08315 c 1.32882,-0.42566 2.416037,-0.8826 2.416037,-1.01542 0,-0.13281 -0.406449,-0.80723 -0.903219,-1.4987 -0.496771,-0.69147 -1.108795,-1.84097 -1.360054,-2.55444 -0.554017,-1.57319 -0.83022,-1.87793 -1.507293,-1.66303 -0.643422,0.20421 -2.916943,2.6648 -3.883086,4.20258 -1.939933,3.08774 0.22699,4.13405 5.237615,2.52901 z m 15.908519,-0.28346 c 2.706861,-1.25585 4.479564,-3.56618 5.331088,-6.94789 0.252858,-1.00419 0.237094,-1.23692 -0.107093,-1.58111 -0.368793,-0.36879 -0.497752,-0.34007 -1.495537,0.33306 -0.941903,0.63544 -1.336248,0.73784 -2.869941,0.74521 -0.9779,0.005 -2.198472,0.16932 -2.712381,0.36581 -1.214008,0.46416 -3.767277,-0.0128 -3.760315,-0.70241 0.0074,-0.73248 2.182775,-2.83929 2.931701,-2.83929 0.468531,0 1.049799,-0.39801 1.975435,-1.35262 0.971928,-1.00236 1.62568,-1.43892 2.524603,-1.68584 0.667174,-0.18327 1.274106,-0.43202 1.348738,-0.55278 0.07463,-0.12076 -0.242638,-0.57088 -0.705044,-1.00027 -2.538762,-2.35752 -7.822045,-3.44214 -11.349928,-2.33007 -3.351852,1.05657 -6.635808,5.94561 -6.635808,9.87915 0,2.59897 1.984015,5.64222 4.61052,7.07202 2.001848,1.08976 3.529623,1.39138 6.692479,1.32126 2.397357,-0.0532 2.996649,-0.15596 4.221483,-0.72423 z m -1.950436,-7.9677 c 0.271176,-0.2051 0.693055,-0.37292 0.937509,-0.37292 0.244455,0 0.519556,-0.1215 0.611336,-0.27 0.2517,-0.40726 -0.641623,-1.254 -1.322989,-1.254 -0.732413,0 -2.525754,1.57434 -2.268144,1.99116 0.253188,0.40967 1.44902,0.35449 2.042288,-0.0942 z m -12.242097,-6.53242 c 1.695782,-2.22115 4.066069,-3.8647 5.989573,-4.15315 0.605484,-0.0908 1.154164,-0.30394 1.219289,-0.47366 0.194089,-0.50578 -0.877654,-3.05459 -1.550025,-3.68625 -0.547289,-0.51415 -0.797777,-0.56831 -2.037097,-0.4404 -1.591854,0.1643 -4.206377,1.48192 -5.354705,2.69858 -0.737426,0.7813 -1.63043,2.83008 -1.630777,3.74141 -1.97e-4,0.51899 2.114154,3.13897 2.533184,3.13897 0.110173,0 0.483925,-0.37147 0.830558,-0.8255 z"
         id="path1"
         sodipodi:nodetypes="csssssssscssscssssssssssssssssssssccssssssssssssssssssssssssccssscssssssssssscssssccssssssssssscsssssssscssscsssssssssssssssscssssssssssssssssssssssscsssssssssscsssssssssssssssss" /></g><g
       transform="matrix(0.14458239,0,0,0.14458239,112.19732,153.42454)"
       id="g8"
       style="clip-rule:evenodd;display:inline;fill-rule:evenodd;stroke-linejoin:round;stroke-miterlimit:1.41421">
            <path
   d="m 0,-92.063 c 0,0 43.486,-47.615 86.974,0 0,0 34.17,63.492 0,95.234 0,0 -55.912,44.444 -86.974,0 0,0 -37.275,-34.921 0,-95.234"
   style="fill-rule:nonzero"
   id="path8-2" />
        </g><g
       transform="matrix(0.14458239,0,0,0.14458239,119.47647,142.66747)"
       id="g9"
       style="clip-rule:evenodd;display:inline;fill-rule:evenodd;stroke-linejoin:round;stroke-miterlimit:1.41421">
            <path
   d="m 0,0.002 c 0,18.541 -10.93,33.572 -24.408,33.572 -13.477,0 -24.406,-15.031 -24.406,-33.572 0,-18.541 10.929,-33.574 24.406,-33.574 C -10.93,-33.572 0,-18.539 0,0.002"
   style="fill:#ffffff;fill-rule:nonzero"
   id="path9" />
        </g><g
       transform="matrix(0.13722561,0,0,0.13722561,84.859453,151.46788)"
       id="g10"
       style="clip-rule:evenodd;display:inline;fill-rule:evenodd;stroke-linejoin:round;stroke-miterlimit:1.41421">
            <path
   d="m 0,-98.439 c 0,0 74.596,-33.028 94.956,40.691 0,0 21.327,85.926 -61.259,90.776 0,0 -105.31,-20.283 -33.697,-131.467"
   style="fill-rule:nonzero"
   id="path10" />
        </g><g
       transform="matrix(0.13722561,0,0,0.13722561,90.000749,142.33469)"
       id="g11"
       style="clip-rule:evenodd;display:inline;fill-rule:evenodd;stroke-linejoin:round;stroke-miterlimit:1.41421">
            <path
   d="m 0,0 c 0,19.119 -11.27,34.627 -25.173,34.627 -13.898,0 -25.171,-15.508 -25.171,-34.627 0,-19.124 11.273,-34.627 25.171,-34.627 C -11.27,-34.627 0,-19.124 0,0"
   style="fill:#ffffff;fill-rule:nonzero"
   id="path11" />
        </g></g></svg>
